<svg xmlns="http://www.w3.org/2000/svg" width="30" height="30" version="1.1" viewBox="-5.0 -10.0 110.0 135.0">
 <g fill-rule="evenodd">
  <path d="m29.168 81.25c0 2.7773-4.168 2.7773-4.168 0s4.168-2.7773 4.168 0"/>
  <path d="m75 81.25c0 2.7773-4.168 2.7773-4.168 0s4.168-2.7773 4.168 0"/>
  <path d="m14.582 31.25h-4.168c-1.1484 0-2.082 0.93359-2.082 2.082 0 1.1484 0.93359 2.082 2.082 2.082h4.168v4.168c-1.6602 0-3.2461 0.66016-4.418 1.832-1.1719 1.1719-1.832 2.7617-1.832 4.418v31.25c0 3.4531 2.7969 6.25 6.25 6.25h2.293c0.96484 4.7539 5.1719 8.332 10.207 8.332 5.0352 0 9.2422-3.582 10.207-8.332h25.418c0.96484 4.7539 5.1719 8.332 10.207 8.332 5.0352 0 9.2422-3.582 10.207-8.332h2.293c1.6602 0 3.2461-0.66016 4.418-1.832s1.832-2.7617 1.832-4.418v-12.5c0-1.6602-0.66016-3.2461-1.832-4.418-1.1719-1.1719-2.7617-1.832-4.418-1.832h-13.359l-8.6289-15.535c-1.043-1.8789-2.9727-3.0781-5.0977-3.2031v-4.1758h6.25c1.1484 0 2.082-0.93359 2.082-2.082 0-1.1484-0.93359-2.082-2.082-2.082h-4.168v-8.332c0-1.6602-0.66016-3.2461-1.832-4.418s-2.7617-1.832-4.418-1.832h-14.582v-2.082c0-1.6602-0.66016-3.2461-1.832-4.418s-2.7617-1.832-4.418-1.832h-12.5c-1.6602 0-3.2461 0.66016-4.418 1.832s-1.832 2.7617-1.832 4.418v16.668zm12.5 43.75c3.4492 0 6.25 2.8008 6.25 6.25s-2.8008 6.25-6.25 6.25-6.25-2.8008-6.25-6.25 2.8008-6.25 6.25-6.25zm45.832 0c3.4492 0 6.25 2.8008 6.25 6.25s-2.8008 6.25-6.25 6.25c-3.4492 0-6.25-2.8008-6.25-6.25s2.8008-6.25 6.25-6.25zm-14.953-31.25h-43.383c-0.55078 0-1.082 0.21875-1.4727 0.60938s-0.60938 0.92188-0.60938 1.4727v31.25c0 1.1484 0.93359 2.082 2.082 2.082h2.293c0.96484-4.7539 5.1719-8.332 10.207-8.332s9.2422 3.582 10.207 8.332h25.418c0.96484-4.7539 5.1719-8.332 10.207-8.332s9.2422 3.582 10.207 8.332h2.293c0.55078 0 1.082-0.21875 1.4727-0.60937 0.39063-0.39063 0.60938-0.92188 0.60938-1.4727v-12.5c0-0.55078-0.21875-1.082-0.60938-1.4727-0.39062-0.39062-0.92187-0.60938-1.4727-0.60938h-14.582c-0.75781 0-1.4531-0.41016-1.8203-1.0703 0 0-6.4922-11.688-9.2266-16.609-0.36719-0.66016-1.0664-1.0703-1.8203-1.0703zm-20.465 6.25c0-1.1484-0.93359-2.082-2.082-2.082h-16.668c-1.1484 0-2.082 0.93359-2.082 2.082v10.418c0 1.1484 0.93359 2.082 2.082 2.082h16.668c1.1484 0 2.082-0.93359 2.082-2.082zm20.57-1.0117c-0.36719-0.66016-1.0664-1.0703-1.8203-1.0703h-12.5c-1.1484 0-2.082 0.93359-2.082 2.082v10.418c0 1.1484 0.93359 2.082 2.082 2.082h18.289c0.73828 0 1.4219-0.39062 1.7969-1.0273 0.37109-0.63672 0.38281-1.4219 0.023438-2.0703l-5.7891-10.418zm-3.0469 3.0977 3.4727 6.25h-12.664v-6.25zm-21.691 0v6.25h-12.5v-6.25zm12.5-16.668v4.168h8.332v-4.168zm-14.582 0v4.168h10.418v-4.168zm-12.5 0v4.168h8.332v-4.168zm31.25-14.582h4.168c0.55078 0 1.082 0.21875 1.4727 0.60937 0.39062 0.39063 0.60938 0.92188 0.60938 1.4727v8.332h-6.25v-10.418zm-25-8.332v18.75h-6.25v-16.668c0-0.55078 0.21875-1.082 0.60938-1.4727s0.92188-0.60938 1.4727-0.60938zm14.582 8.332v10.418h6.25v-10.418zm-10.418-8.332h4.168c0.55078 0 1.082 0.21875 1.4727 0.60938s0.60938 0.92188 0.60938 1.4727v16.668h-6.25z"/>
 </g>
</svg>