<svg xmlns="http://www.w3.org/2000/svg" width="30" height="30" version="1.1" viewBox="-5.0 -10.0 110.0 135.0">
 <path d="m85.637 47.465c0-0.82812 0.67188-1.5 1.5-1.5s1.5 0.67188 1.5 1.5v0.22266c0 0.82812-0.67188 1.5-1.5 1.5s-1.5-0.67188-1.5-1.5zm-24.898-5.9609 0.17188-0.14453c0.75391-0.62109 1.6641-1.2383 2.6992-1.832-0.21094-1.1758-0.32422-2.2695-0.33203-3.25v-0.21875c-0.71484 0.73828-1.2969 1.5898-1.7227 2.5078-0.42969 0.92188-0.70703 1.9102-0.8125 2.9336zm5.6719-3.3633c0.53125-0.22656 1.082-0.44531 1.6445-0.65234 0.5625-0.20312 1.125-0.39062 1.6758-0.55859-0.36328-0.57813-0.73047-1.0938-1.0977-1.5391-0.88281-1.0742-1.5977-1.6797-1.9141-1.5664s-0.46875 1.0352-0.45703 2.4297c0.003906 0.57812 0.054687 1.207 0.14453 1.8828zm6.3633-1.9492c1.1719-0.21484 2.2695-0.32422 3.2461-0.33203h0.22266c-0.73828-0.71484-1.5859-1.293-2.5078-1.7227-0.92188-0.42969-1.9102-0.70703-2.9336-0.8125l0.14453 0.17188c0.62109 0.75391 1.2383 1.6641 1.832 2.6992zm6.2109 7.1914-0.17188 0.14453c-0.75391 0.62109-1.6641 1.2422-2.7031 1.832 0.21484 1.1758 0.32422 2.2695 0.33203 3.2461v0.21875c0.71484-0.73828 1.2969-1.5859 1.7227-2.5078 0.42969-0.92188 0.71094-1.9102 0.81641-2.9336zm-5.6758 3.3633c-0.53125 0.22656-1.0781 0.44531-1.6445 0.65234-0.56641 0.20703-1.125 0.39062-1.6797 0.55859 0.36328 0.57812 0.73047 1.0938 1.1016 1.5391 0.87109 1.0547 1.5742 1.6602 1.8984 1.5703l0.015625-0.003906 0.015625-0.007812c0.30859-0.13672 0.45703-1.0547 0.44531-2.4219-0.003907-0.57812-0.054688-1.207-0.14453-1.8828zm-6.3633 1.9453c-1.1758 0.21484-2.2695 0.32422-3.2461 0.33203h-0.22656c0.71094 0.6875 1.5234 1.2539 2.4062 1.6797l0.10938 0.042969c0.92188 0.42969 1.9141 0.70703 2.9336 0.8125l-0.14062-0.16797c-0.62109-0.75391-1.2422-1.6641-1.832-2.7031zm-4.1367-5.0273c-1.0742 0.88281-1.6797 1.5938-1.5664 1.9141 0.11719 0.31641 1.0352 0.46875 2.4297 0.45703 0.57812-0.003906 1.207-0.054687 1.8828-0.14453-0.22656-0.53125-0.44531-1.0781-0.65234-1.6445-0.20703-0.56641-0.39062-1.125-0.55859-1.6797-0.57812 0.36328-1.0938 0.73047-1.5391 1.0977zm5.7383 1.5938c0.67969-0.1875 1.3789-0.41406 2.0859-0.66797l0.015626-0.007813c0.70703-0.25781 1.3906-0.53516 2.0312-0.82812-0.19141-0.67969-0.41406-1.3789-0.67188-2.0898-0.25781-0.71094-0.53906-1.3906-0.83203-2.0391-0.67969 0.19141-1.3828 0.41406-2.0938 0.67188-0.71094 0.25781-1.3906 0.53516-2.0352 0.82812 0.1875 0.67578 0.41016 1.3711 0.66797 2.0781l0.007812 0.019531c0.25781 0.70703 0.53516 1.3906 0.82812 2.0312zm6.8281-2.9414c0.57812-0.36328 1.0938-0.73047 1.5391-1.1016 1.0547-0.87109 1.6602-1.5703 1.5703-1.8984l-0.003906-0.015625-0.007813-0.015625c-0.14062-0.30469-1.0547-0.45312-2.4219-0.44141-0.57812 0.003906-1.207 0.054688-1.8828 0.14453 0.22656 0.53125 0.44531 1.082 0.65234 1.6445 0.20313 0.56641 0.39063 1.125 0.55469 1.6797zm-9.6719-11.305c3.1602-1.1484 6.4844-0.91016 9.3008 0.40234 2.8203 1.3164 5.1406 3.707 6.2891 6.8672l0.015625 0.039062 0.011718 0.039063c1.1133 3.1289 0.87109 6.4219-0.43359 9.2188-2.8242 6.0859-10.086 8.7227-16.164 5.8906l-0.12109-0.0625c-2.7656-1.3281-5.0352-3.6953-6.168-6.8047-1.1484-3.1602-0.91016-6.4844 0.40234-9.3008 1.3164-2.8203 3.707-5.1406 6.8672-6.2891zm-46.219 21.77c-0.82812 0-1.5-0.67188-1.5-1.5s0.67188-1.5 1.5-1.5h32.824c0.82812 0 1.5 0.67188 1.5 1.5s-0.67188 1.5-1.5 1.5zm0-6.3633c-0.82812 0-1.5-0.67188-1.5-1.5s0.67188-1.5 1.5-1.5h32.824c0.82812 0 1.5 0.67188 1.5 1.5s-0.67188 1.5-1.5 1.5zm0-6.3633c-0.82812 0-1.5-0.67188-1.5-1.5 0-0.82813 0.67188-1.5 1.5-1.5h32.824c0.82812 0 1.5 0.67187 1.5 1.5 0 0.82812-0.67188 1.5-1.5 1.5zm0-6.3633c-0.82812 0-1.5-0.67188-1.5-1.5s0.67188-1.5 1.5-1.5h32.824c0.82812 0 1.5 0.67188 1.5 1.5s-0.67188 1.5-1.5 1.5zm9.2344-15.02 1.875 4.5664h55.051v-4.5664zm-1.3594 4.5664-1.875-4.5664h-11.113v4.5664zm58.281 3h-71.27v32.422h71.27v-5.5469c0-0.82812 0.67188-1.5 1.5-1.5s1.5 0.67188 1.5 1.5v6.7734l6.2344 16.309 0.007812 0.019532 0.007813 0.015625v0.003906l0.007813 0.015625 0.007812 0.011719v0.003906l0.007812 0.019531 0.003907 0.011719 0.003906 0.007813 0.007813 0.019531 0.003906 0.011719 0.003906 0.007812 0.007812 0.019531 0.003907 0.011719 0.003906 0.007812 0.003906 0.019532 0.007813 0.015625 0.003906 0.019531 0.007812 0.015625 0.003907 0.019531v0.007813l0.003906 0.011719 0.003906 0.019531v0.007812l0.003907 0.011719 0.003906 0.019531v0.007813l0.003906 0.011718 0.003906 0.019532v0.007812l0.003906 0.011719 0.003907 0.019531v0.019532l0.003906 0.019531v0.003906l0.003906 0.015625v6.1602c0 0.82812-0.67188 1.5-1.5 1.5h-68.172c-0.82812 0-1.5-0.67188-1.5-1.5s0.67188-1.5 1.5-1.5h66.672v-3.0195h-84v3.0195h6.2656c0.82812 0 1.5 0.67188 1.5 1.5s-0.67188 1.5-1.5 1.5h-7.7656c-0.82812 0-1.5-0.67188-1.5-1.5v-6.0195l0.003907-0.078125v-0.039062l0.003906-0.011719 0.011718-0.097657 0.003907-0.011718 0.015625-0.074219 0.003906-0.027344 0.003906-0.011719c0.019532-0.082031 0.042969-0.16016 0.074219-0.23437l0.015625-0.03125 6.2344-16.312v-42.715c0-0.82812 0.67188-1.5 1.5-1.5h74.27c0.82812 0 1.5 0.67188 1.5 1.5v24.875c0 0.82812-0.67188 1.5-1.5 1.5s-1.5-0.67188-1.5-1.5v-15.809zm-45.09 49.078 0.63281-3.2617c0.16406-0.85547 0.62109-1.5898 1.25-2.1133 0.62891-0.52734 1.4375-0.83203 2.3125-0.83203h10.52c0.86719 0 1.6758 0.30859 2.3086 0.82812 0.63672 0.51953 1.0859 1.2539 1.2539 2.1094l0.63281 3.2656h31.863l-5.2188-13.652h-72.207l-5.2188 13.652h31.867zm15.863 0-0.52344-2.6914c-0.03125-0.15625-0.10938-0.28516-0.21875-0.375-0.10156-0.085938-0.24609-0.13672-0.40234-0.13672h-10.52c-0.15625 0-0.29688 0.050781-0.40234 0.13672-0.10938 0.085938-0.1875 0.21484-0.21875 0.37109l-0.52344 2.6992h12.812zm-36.496 6.0195c0.82812 0 1.5 0.67187 1.5 1.5 0 0.82812-0.67188 1.5-1.5 1.5h-0.22266c-0.82812 0-1.5-0.67188-1.5-1.5 0-0.82813 0.67188-1.5 1.5-1.5z"/>
</svg>