<svg xmlns="http://www.w3.org/2000/svg" width="30" height="30" viewBox="0 0 64 80" x="0px" y="0px">
    <g data-name="Outline Icon">
        <path
            d="M46.84,36.56V34a1,1,0,0,0-1-1h-.56c.37-2.42-1.54-3.72-3-4.7a10.5,10.5,0,0,1-1.59-1.21,3.61,3.61,0,0,0-3.52-.93c0-.65,0-1.28,0-1.91,15.07-2.67,13.67-15,13.66-15.1A1,1,0,0,0,50,8.28a14.09,14.09,0,0,0-14.91,7A30.25,30.25,0,0,0,30.2,7.33a1,1,0,1,0-1.48,1.34,11.37,11.37,0,0,1,2.18,4.91c-2.7-1.83-8-4-17-2.19a1,1,0,0,0-.67.47,1,1,0,0,0-.1.81c0,.12,3.61,11.22,15.32,11.22a20.79,20.79,0,0,0,3.23-.27c0,.61,0,1.15-.06,1.61a3.18,3.18,0,0,0-.43-.06c-1.74-.13-3,1.15-4.14,2.28a8.61,8.61,0,0,1-1.54,1.33,4.44,4.44,0,0,0-2.15,4.29,1,1,0,0,0-.62.92v2.57a3,3,0,0,0-2.9,3V56a1,1,0,0,0,1,1H48.74a1,1,0,0,0,1-1V39.58A3,3,0,0,0,46.84,36.56ZM24.75,35H44.84v1.55H24.75ZM39.29,28.5A12.56,12.56,0,0,0,41.17,30c1.63,1.1,2.43,1.71,2.07,3H29.06a1.94,1.94,0,0,1,1.15-1.22,3.61,3.61,0,0,0,2-1.71c.35-.58.53-.87,1.74-.91a7,7,0,0,0,2.18-.57C37.72,28,38.56,27.77,39.29,28.5ZM48.9,10.16c0,2.46-.82,10.05-11.88,12.08-.05-.38-.1-.77-.17-1.14a.92.92,0,0,0,.18-.32s1.33-3.68,6.58-4.69a1,1,0,0,0,.79-1.17,1,1,0,0,0-1.17-.79,11,11,0,0,0-7,4.16c0-.18-.1-.35-.16-.51A12.19,12.19,0,0,1,48.9,10.16Zm-33.43,3c10.74-1.78,15.13,2.55,15.93,3.48.07.59.13,1.18.17,1.76A15.16,15.16,0,0,0,22.49,15a1,1,0,0,0-1,1,1,1,0,0,0,1,1,13.28,13.28,0,0,1,9.26,4.2c0,.12,0,.24,0,.36C21.08,23.44,16.72,16,15.47,13.14Zm17.92,3.27A22.41,22.41,0,0,1,35.14,26.8a7.9,7.9,0,0,1-.83.27c-.25-.29-.49-.53-.73-.76A57.16,57.16,0,0,0,33.39,16.41Zm-6.9,14.11a9.49,9.49,0,0,0,2-1.65c.87-.87,1.76-1.77,2.58-1.7a1.41,1.41,0,0,1,.51.15,1.06,1.06,0,0,0,.18.35A3.55,3.55,0,0,0,30.48,29a1.65,1.65,0,0,1-.95.88A4.12,4.12,0,0,0,27,33H25.36A2.56,2.56,0,0,1,26.49,30.52Zm-3.6,8H46.7a1,1,0,0,1,1,1v3.78H21.85V39.58A1,1,0,0,1,22.89,38.54Zm24.85,10.6H21.85V45.36H47.74ZM21.85,55V51.14H47.74V55Z" />
    </g>

</svg>