<svg xmlns="http://www.w3.org/2000/svg" width="30" height="30" version="1.1" viewBox="-5.0 -10.0 110.0 135.0">
 <g>
  <path d="m91.332 43.172c-1.2305-5.3008-6.8242-8.9023-12.145-7.9297v-1.7539c0.042969-3.9805-2.875-7.2266-6.6133-8.2656-14.555-5.5938-30.59-5.5938-45.148-0.003906-3.7344 1.043-6.6641 4.2812-6.6172 8.2695v1.7773c-9.6211-1.8086-16.375 10.172-9.957 17.523 2.6094 2.8867 3.3008 6.0742 4.2461 9.4062 1.2891 4.4102 5.4023 7.4961 10 7.4961h1.1289l-2.7773 6.3672c-0.46094 1.0547 0.023437 2.2812 1.0781 2.7422 1.0312 0.45703 2.2812-0.011719 2.7422-1.0781l3.5039-8.0352h38.453s3.5039 8.0352 3.5039 8.0352c0.46094 1.0625 1.7148 1.5352 2.7422 1.0781 1.0547-0.46094 1.5391-1.6875 1.0781-2.7422l-2.7773-6.3672h1.1289c4.5977 0 8.707-3.082 10-7.4961l1.1172-3.832c0.53906-1.8398 1.5703-3.6562 3.2461-5.7188 2.1484-2.6484 2.8984-6.1016 2.0625-9.4727zm-66.355-9.6836c-0.007812-2.3906 1.8203-3.7773 3.9453-4.3789 14.016-5.4062 29.527-5.1797 43.426 0.48828 1.5977 0.61328 2.6719 2.1758 2.6719 3.8906v3.332c-3.5195 2.1836-5.25 6.2617-4.9531 10.316h-13.816c-2.5 0-4.7227 1.1289-6.25 2.8789-1.5273-1.75-3.75-2.8789-6.25-2.8789h-13.812v-0.87109c0-3.875-1.9922-7.332-4.9609-9.3438v-3.4375zm27.23 20.969c0.45312-1.8086 2.0938-3.1523 4.043-3.1523h13.816v3.1523zm-22.27-3.1523h13.812c1.9492 0 3.5898 1.3438 4.043 3.1523h-17.855zm56.102-1.2891c-2.0391 2.5039-3.3125 4.7852-4.0156 7.1797l-1.1172 3.832c-0.77344 2.6484-3.2422 4.4961-6 4.4961h-45.465-4.3438c-2.7578 0-5.2266-1.8477-6-4.4961l-1.2148-4.1562c-0.66406-2.2617-1.918-4.4766-3.8438-6.7656-1.0078-1.1992-1.543-2.6562-1.543-4.2148-0.070313-3.8125 3.4844-7.0664 7.293-6.6016 3.3516 0.32031 5.9766 3.3828 5.9766 6.9766 0.003906 0.027344 0.003906 2.9336-0.003906 2.9531v7.3203c0 1.1523 0.93359 2.082 2.082 2.082h44.301c1.1523 0 2.082-0.93359 2.082-2.082v-10.648c-0.027343-2.5547 1.5195-4.9141 3.8086-6.0078 6.2773-2.9727 12.398 4.6953 7.9961 10.133z"/>
  <path d="m37.195 34.629c2.7383-0.046875 2.7383-4.1211 0-4.168-2.7383 0.046874-2.7383 4.1211 0 4.168z"/>
  <path d="m50 34.629c2.7383-0.046875 2.7383-4.1211 0-4.168-2.7383 0.046874-2.7383 4.1211 0 4.168z"/>
  <path d="m62.801 34.629c2.7383-0.046875 2.7383-4.1211 0-4.168-2.7383 0.046874-2.7383 4.1211 0 4.168z"/>
  <path d="m43.598 42.512c2.7383-0.046875 2.7383-4.1211 0-4.168-2.7383 0.046875-2.7383 4.1211 0 4.168z"/>
  <path d="m56.398 42.512c2.7383-0.046875 2.7383-4.1211 0-4.168-2.7383 0.046875-2.7383 4.1211 0 4.168z"/>
 </g>
</svg>