<svg xmlns="http://www.w3.org/2000/svg" width="30" height="30" viewBox="0 0 64 80" x="0px" y="0px">
    <defs>
        <style>.cls-1{stroke-width:0px;}</style>
    </defs>
    <path class="cls-1"
        d="m35.8,15.32v-1.52c0-.55.45-1,1-1s1,.45,1,1v1.52c0,.55-.45,1-1,1s-1-.45-1-1Zm-8.6,1c.55,0,1-.45,1-1v-1.52c0-.55-.45-1-1-1s-1,.45-1,1v1.52c0,.55.45,1,1,1Zm2.18,5.21c-.75-.8-1.07-1.91-.97-3.28.07-.98.9-1.75,1.88-1.75h3.4c.94,0,1.74.7,1.87,1.63t0,0c.04.32.21,1.97-.85,3.24-.34.41-.9.87-1.76,1.1l.04,1.49c.02.56-.44,1.03-1,1.03-.54,0-.98-.43-1-.97l-.04-1.54c-.5-.14-1.07-.41-1.58-.95Zm1.02-3.02c-.04.74.11,1.3.45,1.66.38.41.89.46,1.09.46.58-.03.97-.2,1.24-.52.44-.53.43-1.32.41-1.59h-3.19Zm30.16,23.29c-.18.31-.51.5-.86.5h-3.97v15.36c0,1.85-1.5,3.35-3.35,3.35H11.62c-1.85,0-3.35-1.5-3.35-3.35v-15.36h-3.97c-.36,0-.68-.19-.86-.5-.18-.31-.18-.69,0-1l4.97-8.78c.18-.31.51-.51.87-.51h2.91c.86-3.89,5.23-7.43,8.31-9.49-.73-1.6-1.15-3.36-1.15-5.23,0-1.56.3-3.05.82-4.43-1.15-1.01-1.83-2.45-1.83-4.01,0-2.95,2.4-5.36,5.36-5.36,1.58,0,3.05.7,4.06,1.89,1.33-.48,2.76-.75,4.26-.75s2.93.27,4.26.75c1.01-1.19,2.47-1.89,4.06-1.89,2.95,0,5.36,2.4,5.36,5.36,0,1.56-.67,3-1.83,4.01.52,1.38.82,2.87.82,4.43,0,1.87-.42,3.63-1.15,5.23,3.08,2.07,7.44,5.6,8.31,9.49h2.91c.36,0,.69.19.87.51l4.97,8.78c.18.31.17.69,0,1Zm-18.02-18.01c-.2.3-.42.59-.64.87,1.4,2.05,2.5,4.43,3.15,6.86h4.69c-.95-3.09-4.82-6.11-7.2-7.73Zm.43,7.73c-.56-1.89-1.41-3.74-2.48-5.37-2.25,2.05-5.23,3.31-8.51,3.31s-6.26-1.26-8.51-3.31c-1.06,1.63-1.91,3.48-2.48,5.37h21.96Zm-4.76-25.74c.67.38,1.3.81,1.89,1.3l.32-.32c.4-.38,1.03-.38,1.41.02.39.39.38,1.03-.02,1.41l-.3.29c.52.6.99,1.25,1.39,1.94.47-.58.75-1.3.75-2.07,0-1.85-1.5-3.36-3.36-3.36-.78,0-1.51.29-2.1.78Zm-6.22.36c-5.88,0-10.66,4.78-10.66,10.66s4.78,10.66,10.66,10.66,10.66-4.78,10.66-10.66-4.78-10.66-10.66-10.66Zm-10.92,4.29c.4-.69.87-1.34,1.39-1.94l-.3-.29c-.4-.39-.4-1.02-.02-1.41.39-.4,1.02-.4,1.41-.02l.32.32c.59-.49,1.22-.92,1.89-1.3-.59-.49-1.32-.78-2.1-.78-1.85,0-3.36,1.5-3.36,3.36,0,.77.28,1.48.75,2.07Zm-6.83,21.1h4.69c.65-2.43,1.75-4.81,3.15-6.86-.22-.28-.44-.57-.64-.87-2.39,1.62-6.25,4.64-7.2,7.73Zm-8.23,8.78h26.43l3.84-6.78H9.85l-3.84,6.78Zm5.61,18.71h25.38v-22.69l-3.1,5.47c-.18.31-.51.51-.87.51H10.27v15.36c0,.75.61,1.35,1.35,1.35Zm42.11-16.71h-10.76c-.36,0-.69-.19-.87-.51l-3.1-5.47v22.69h13.38c.75,0,1.35-.61,1.35-1.35v-15.36Zm4.25-2l-3.84-6.78h-14.43l3.84,6.78h14.43Zm-34.44,13.79h-9.52c-.55,0-1,.45-1,1s.45,1,1,1h9.52c.55,0,1-.45,1-1s-.45-1-1-1Zm-9.52-2h5.52c.55,0,1-.45,1-1s-.45-1-1-1h-5.52c-.55,0-1,.45-1,1s.45,1,1,1Z" />
</svg>