<svg width="116" height="31" viewBox="0 0 116 31" fill="none" xmlns="http://www.w3.org/2000/svg">
<path fill-rule="evenodd" clip-rule="evenodd" d="M77.4199 19.932H84.1399V11.152H77.4199C76.2599 11.152 75.1799 12.213 75.1799 13.347V17.737C75.1799 18.871 76.2599 19.932 77.4199 19.932ZM104.303 19.932H111.023V11.152H104.303C103.143 11.152 102.063 12.213 102.063 13.347V17.737C102.063 18.871 103.143 19.932 104.303 19.932ZM88.6209 7.85896V23.225C88.6209 23.709 87.9959 24.323 87.5009 24.323L85.2609 24.346C84.7649 24.346 84.1409 23.709 84.1409 23.226V22.493L83.1239 23.689C82.8139 24.102 82.0499 24.323 81.5269 24.323H77.4199C73.8159 24.323 70.6989 21.26 70.6989 17.737V13.347C70.6989 9.82396 73.8159 6.76196 77.4189 6.76196H87.5009C87.9959 6.76196 88.6209 7.37496 88.6209 7.85896ZM115.504 7.85896V23.225C115.504 23.709 114.88 24.323 114.384 24.323L112.144 24.346C111.648 24.346 111.024 23.709 111.024 23.226V22.493L110.007 23.689C109.697 24.102 108.933 24.323 108.41 24.323H104.303C100.699 24.323 97.5819 21.26 97.5819 17.737V13.347C97.5819 9.82396 100.699 6.76196 104.302 6.76196H114.384C114.879 6.76196 115.504 7.37496 115.504 7.85896ZM40.8289 11.152H34.1079C32.9479 11.152 31.8679 12.213 31.8679 13.347V17.737C31.8679 18.871 32.9479 19.932 34.1079 19.932H40.8279L40.8289 11.152ZM45.3089 7.85896V24.688C45.3089 28.211 42.1919 30.908 38.5889 30.908H35.1239C34.6089 30.908 34.1239 30.672 33.8129 30.27L31.8409 27.72C31.5139 27.296 31.6969 26.518 32.2399 26.518H38.5869C39.7469 26.518 40.8269 25.822 40.8269 24.688V24.323H34.1069C30.5029 24.323 27.3869 21.26 27.3869 17.737V13.347C27.3869 9.82396 30.5029 6.76196 34.1069 6.76196H38.2139C38.7279 6.76196 39.2879 7.16696 39.6509 7.49296L40.8279 8.59096V7.85796C40.8279 7.37496 41.4529 6.76096 41.9479 6.76096H44.1879C44.6839 6.76096 45.3079 7.37396 45.3079 7.85796L45.3089 7.85896ZM4.98491 17.738C4.98491 18.872 6.06491 19.933 7.22491 19.933H13.9449V11.153H7.22491C6.06491 11.153 4.98491 12.214 4.98491 13.348V17.738ZM17.3039 0.907959C17.8009 0.907959 18.4249 1.52096 18.4249 2.00596V23.226C18.4249 23.709 17.8009 24.323 17.3049 24.323H15.0649C14.5689 24.323 13.9449 23.71 13.9449 23.225V22.493L12.7699 23.725C12.4519 24.071 11.8379 24.323 11.3299 24.323H7.22591C3.62091 24.323 0.503906 21.26 0.503906 17.737V13.381C0.503906 9.85796 3.62091 6.76096 7.22391 6.76096H13.9459V2.00696C13.9459 1.52196 14.5699 0.908959 15.0659 0.908959H17.3059L17.3039 0.907959ZM63.6039 15.542L69.8399 7.80796C70.1869 7.38696 69.8799 6.75996 69.3269 6.75996H65.7609C65.4909 6.75996 65.2359 6.87896 65.0649 7.08296L58.7509 14.81V2.00596C58.7509 1.52096 58.1259 0.907959 57.6309 0.907959H55.3909C54.8949 0.907959 54.2709 1.52096 54.2709 2.00596V23.226C54.2709 23.709 54.8949 24.323 55.3909 24.323H57.6309C58.1259 24.323 58.7509 23.709 58.7509 23.225V16.274L65.0679 24.018C65.2379 24.225 65.4959 24.346 65.7679 24.346H69.3299C69.8839 24.346 70.1899 23.719 69.8439 23.298L63.6039 15.542ZM48.6699 0.907959C48.1739 0.907959 47.5499 1.52096 47.5499 2.00596V4.20096C47.5499 4.68496 48.1739 5.29796 48.6699 5.29796H50.9099C51.4049 5.29796 52.0299 4.68496 52.0299 4.20096V2.00596C52.0299 1.52096 51.4049 0.907959 50.9099 0.907959H48.6699ZM48.6699 6.76196C48.1739 6.76196 47.5499 7.37496 47.5499 7.85896V23.225C47.5499 23.709 48.3499 24.345 48.8449 24.345L50.9099 24.323C51.4049 24.323 52.0299 23.709 52.0299 23.225V7.85896C52.0299 7.37496 51.4049 6.76196 50.9099 6.76196H48.6699ZM21.7859 0.907959C21.2909 0.907959 20.6659 1.52096 20.6659 2.00596V4.20096C20.6659 4.68496 21.2909 5.29796 21.7859 5.29796H24.0259C24.5219 5.29796 25.1459 4.68496 25.1459 4.20096V2.00596C25.1459 1.52096 24.5219 0.907959 24.0259 0.907959H21.7859ZM21.7859 6.76196C21.2909 6.76196 20.6659 7.37496 20.6659 7.85896V23.225C20.6659 23.709 21.2909 24.323 21.7859 24.323H24.0259C24.5219 24.323 25.1459 23.709 25.1459 23.225V7.85896C25.1459 7.37496 24.5219 6.76196 24.0259 6.76196H21.7859ZM95.3419 2.00596V23.226C95.3419 23.709 94.7169 24.323 94.2219 24.323H91.9819C91.4859 24.323 90.8619 23.709 90.8619 23.225V2.00496C90.8619 1.52096 91.4859 0.907959 91.9819 0.907959H94.2219C94.7169 0.907959 95.3419 1.52096 95.3419 2.00596Z" fill="#EE384E"/>
</svg>
