<svg width="21" height="19" viewBox="0 0 21 19" fill="none" xmlns="http://www.w3.org/2000/svg">
<path fill-rule="evenodd" clip-rule="evenodd" d="M14.75 12.5H12.75V14.5C12.75 15.0304 12.5393 15.5391 12.1642 15.9142C11.7891 16.2893 11.2804 16.5 10.75 16.5H4.75C4.21957 16.5 3.71086 16.2893 3.33579 15.9142C2.96071 15.5391 2.75 15.0304 2.75 14.5V4.5C2.75 3.96957 2.96071 3.46086 3.33579 3.08579C3.71086 2.71071 4.21957 2.5 4.75 2.5H10.75C11.2804 2.5 11.7891 2.71071 12.1642 3.08579C12.5393 3.46086 12.75 3.96957 12.75 4.5V6.5H14.75V4.5C14.75 3.43913 14.3286 2.42172 13.5784 1.67157C12.8283 0.921427 11.8109 0.5 10.75 0.5H4.75C3.68913 0.5 2.67172 0.921427 1.92157 1.67157C1.17143 2.42172 0.75 3.43913 0.75 4.5V14.5C0.75 15.5609 1.17143 16.5783 1.92157 17.3284C2.67172 18.0786 3.68913 18.5 4.75 18.5H10.75C11.8109 18.5 12.8283 18.0786 13.5784 17.3284C14.3286 16.5783 14.75 15.5609 14.75 14.5V12.5ZM20.75 8.5H8.164L10.457 6.207L9.043 4.793L5.043 8.793C4.85553 8.98053 4.75021 9.23484 4.75021 9.5C4.75021 9.76516 4.85553 10.0195 5.043 10.207L9.043 14.207L10.457 12.793L8.164 10.5H20.75V8.5Z" fill="#424750"/>
</svg>
