<svg width="19" height="19" viewBox="0 0 19 19" fill="none" xmlns="http://www.w3.org/2000/svg">
<path fill-rule="evenodd" clip-rule="evenodd" d="M8.00396 15.908C6.31249 15.9078 4.67076 15.3358 3.34534 14.2849C2.01991 13.2341 1.08863 11.766 0.702709 10.1192C0.316787 8.4723 0.498885 6.74335 1.21944 5.21303C1.93999 3.68271 3.15668 2.4409 4.67195 1.68922C6.18722 0.937549 7.91209 0.720156 9.56649 1.07234C11.2209 1.42453 12.7077 2.32561 13.7854 3.62929C14.8631 4.93296 15.4685 6.56266 15.5033 8.25377C15.5381 9.94488 15.0002 11.5981 13.977 12.945L18.346 17.191L16.952 18.625L12.565 14.362C11.2571 15.3669 9.65331 15.9105 8.00396 15.908ZM13.504 8.40797C13.504 9.86666 12.9245 11.2656 11.893 12.2971C10.8616 13.3285 9.46265 13.908 8.00396 13.908C6.54527 13.908 5.14632 13.3285 4.11487 12.2971C3.08342 11.2656 2.50396 9.86666 2.50396 8.40797C2.50396 6.94928 3.08342 5.55033 4.11487 4.51888C5.14632 3.48743 6.54527 2.90797 8.00396 2.90797C9.46265 2.90797 10.8616 3.48743 11.893 4.51888C12.9245 5.55033 13.504 6.94928 13.504 8.40797Z" fill="#A1A3A8"/>
</svg>
