<svg width="21" height="20" viewBox="0 0 21 20" fill="none" xmlns="http://www.w3.org/2000/svg">
<path fill-rule="evenodd" clip-rule="evenodd" d="M18.5044 2.90796H20.5044V0.907959H17.5044C17.2392 0.907959 16.9848 1.01332 16.7973 1.20085C16.6098 1.38839 16.5044 1.64274 16.5044 1.90796V2.90796H1.50441C1.36465 2.90796 1.22645 2.93725 1.09871 2.99395C0.970967 3.05065 0.856531 3.13349 0.762779 3.23713C0.669027 3.34078 0.598041 3.46293 0.5544 3.59569C0.510759 3.72846 0.495432 3.8689 0.509407 4.00796L1.50941 14.008C1.5342 14.2546 1.64973 14.4833 1.83358 14.6496C2.01743 14.8159 2.2565 14.908 2.50441 14.908H17.5044C17.7696 14.908 18.024 14.8026 18.2115 14.6151C18.3991 14.4275 18.5044 14.1732 18.5044 13.908V2.90796ZM16.5044 19.908C15.974 19.908 15.4653 19.6972 15.0902 19.3222C14.7151 18.9471 14.5044 18.4384 14.5044 17.908C14.5044 17.3775 14.7151 16.8688 15.0902 16.4937C15.4653 16.1187 15.974 15.908 16.5044 15.908C17.0348 15.908 17.5435 16.1187 17.9186 16.4937C18.2937 16.8688 18.5044 17.3775 18.5044 17.908C18.5044 18.4384 18.2937 18.9471 17.9186 19.3222C17.5435 19.6972 17.0348 19.908 16.5044 19.908ZM3.50441 19.908C2.97397 19.908 2.46527 19.6972 2.09019 19.3222C1.71512 18.9471 1.50441 18.4384 1.50441 17.908C1.50441 17.3775 1.71512 16.8688 2.09019 16.4937C2.46527 16.1187 2.97397 15.908 3.50441 15.908C4.03484 15.908 4.54355 16.1187 4.91862 16.4937C5.29369 16.8688 5.50441 17.3775 5.50441 17.908C5.50441 18.4384 5.29369 18.9471 4.91862 19.3222C4.54355 19.6972 4.03484 19.908 3.50441 19.908ZM16.5044 12.908V4.90796H2.60941L3.40941 12.908H16.5044Z" fill="#424750"/>
</svg>
