<?xml version="1.0" encoding="UTF-8"?>
<svg version="1.1" xmlns="http://www.w3.org/2000/svg" width="25" height="25" viewBox="0 0 60 60">
<path d="M0 0 C1.05904289 0.00212242 1.05904289 0.00212242 2.13948059 0.00428772 C4.39120751 0.00987861 6.64283446 0.02242937 8.89453125 0.03515625 C10.4225246 0.04017243 11.95051952 0.04473513 13.47851562 0.04882812 C17.2213926 0.05984505 20.96419498 0.07710338 24.70703125 0.09765625 C24.70703125 2.07765625 24.70703125 4.05765625 24.70703125 6.09765625 C21.07703125 6.42765625 17.44703125 6.75765625 13.70703125 7.09765625 C13.70703125 7.75765625 13.70703125 8.41765625 13.70703125 9.09765625 C18.98703125 9.42765625 24.26703125 9.75765625 29.70703125 10.09765625 C29.70703125 12.07765625 29.70703125 14.05765625 29.70703125 16.09765625 C25.08703125 16.09765625 20.46703125 16.09765625 15.70703125 16.09765625 C16.20203125 17.58265625 16.20203125 17.58265625 16.70703125 19.09765625 C21.98703125 19.42765625 27.26703125 19.75765625 32.70703125 20.09765625 C32.70703125 22.07765625 32.70703125 24.05765625 32.70703125 26.09765625 C27.09703125 26.09765625 21.48703125 26.09765625 15.70703125 26.09765625 C16.20203125 27.58265625 16.20203125 27.58265625 16.70703125 29.09765625 C19.34703125 29.42765625 21.98703125 29.75765625 24.70703125 30.09765625 C24.70703125 32.07765625 24.70703125 34.05765625 24.70703125 36.09765625 C20.25963712 36.17214876 15.81257935 36.22641882 11.36474609 36.26245117 C9.85361398 36.27748168 8.34252507 36.29791189 6.83154297 36.32397461 C4.65190938 36.36061314 2.4728555 36.37743963 0.29296875 36.390625 C-1.01623535 36.40633545 -2.32543945 36.4220459 -3.67431641 36.43823242 C-8.37310578 35.99599715 -11.71502382 34.58297548 -15.15625 31.34375 C-15.63449219 30.74691406 -16.11273438 30.15007813 -16.60546875 29.53515625 C-17.09660156 28.93574219 -17.58773438 28.33632813 -18.09375 27.71875 C-21.49004798 23.12766315 -20.8025086 17.57341551 -20.29296875 12.09765625 C-17.9732345 7.1905261 -14.57519944 4.28655145 -10.29296875 1.09765625 C-6.78672445 -0.07109185 -3.64518215 -0.02748642 0 0 Z M-12.29296875 10.09765625 C-14.68225834 13.98025184 -15.66115767 16.82479596 -14.85546875 21.28515625 C-13.84680754 24.497929 -13.17859669 25.19677871 -10.48046875 27.53515625 C-6.26562807 29.60125462 -3.92718748 30.43811849 0.70703125 29.47265625 C4.2892048 27.83082671 6.25424847 26.1811546 8.70703125 23.09765625 C10.04377262 19.25452482 9.79414795 17.39487795 8.64453125 13.47265625 C6.39834583 9.55994616 4.76114761 8.04675066 0.70703125 6.09765625 C-4.92573829 5.29297489 -8.04304945 6.33068232 -12.29296875 10.09765625 Z " fill="#1027FF" transform="translate(20.29296875,11.90234375)"/>
<path d="M0 0 C1.65 0 3.3 0 5 0 C5 1.98 5 3.96 5 6 C6.98 6 8.96 6 11 6 C11 7.32 11 8.64 11 10 C9.35425434 10.02688151 7.70838587 10.04634123 6.0625 10.0625 C5.14597656 10.07410156 4.22945312 10.08570313 3.28515625 10.09765625 C1 10 1 10 0 9 C-0.07179964 7.48071962 -0.08392007 5.95832518 -0.0625 4.4375 C-0.05347656 3.61121094 -0.04445313 2.78492188 -0.03515625 1.93359375 C-0.02355469 1.29550781 -0.01195312 0.65742188 0 0 Z " fill="#1027FF" transform="translate(13,24)"/>
<path d="M0 0 C2.31 0 4.62 0 7 0 C7 1.98 7 3.96 7 6 C4.69 6 2.38 6 0 6 C0 4.02 0 2.04 0 0 Z " fill="#1028FF" transform="translate(47,42)"/>
<path d="M0 0 C2.31 0 4.62 0 7 0 C7 1.98 7 3.96 7 6 C4.69 6 2.38 6 0 6 C0 4.02 0 2.04 0 0 Z " fill="#1028FF" transform="translate(53,22)"/>
<path d="M0 0 C1.2065625 0.0309375 1.2065625 0.0309375 2.4375 0.0625 C2.4375 2.0425 2.4375 4.0225 2.4375 6.0625 C0.7875 6.0625 -0.8625 6.0625 -2.5625 6.0625 C-2.94468767 4.40635343 -3.27645102 2.73792976 -3.5625 1.0625 C-2.5625 0.0625 -2.5625 0.0625 0 0 Z " fill="#1028FF" transform="translate(52.5625,11.9375)"/>
</svg>
