<svg xmlns="http://www.w3.org/2000/svg" width="21" height="21" version="1.1" viewBox="-5.0 -10.0 110.0 135.0">
 <g>
  <path d="m92.809 21.086c-0.019532-0.054688-0.027344-0.10938-0.050782-0.16406-0.10156-0.22266-0.22656-0.43359-0.39453-0.62109l-6.0742-6.7266-1.2109-2.1523c-1.5234-2.707-4.3945-4.3867-7.4922-4.3867h-54.969c-3.2734 0-6.2148 1.8203-7.6836 4.7461l-1.2305 2.457-5.9844 5.9805c-0.19922 0.19531-0.33984 0.42969-0.45703 0.67578-0.03125 0.070313-0.050781 0.14062-0.078125 0.21484-0.070313 0.20312-0.11328 0.41016-0.125 0.62109-0.003906 0.050781-0.027344 0.09375-0.027344 0.14453l-0.003906 62.5c0 4.7422 3.8516 8.5938 8.5938 8.5938h68.754c4.7422 0 8.5938-3.8516 8.5938-8.5938v-62.504c0-0.042969-0.023438-0.085938-0.023438-0.12891-0.011718-0.22656-0.054687-0.44531-0.13281-0.66016zm-75.523-3.8047c0.17969-0.17969 0.32422-0.38281 0.44141-0.60547l1.3984-2.7969c0.66406-1.332 2.0039-2.1562 3.4922-2.1562h54.969c1.4102 0 2.7148 0.76562 3.4062 1.9961l1.3359 2.3828c0.085937 0.15234 0.19141 0.29297 0.30469 0.42578l2.7148 3.0078h-70.309l2.25-2.25zm70.996 67.094c0 2.1523-1.7539 3.9062-3.9062 3.9062h-68.75c-2.1523 0-3.9062-1.7539-3.9062-3.9062v-60.16h76.562z"/>
  <path d="m50 65.969c13.426 0 24.344-10.918 24.344-24.344v-7.0625c0-1.293-1.0508-2.3438-2.3438-2.3438s-2.3438 1.0508-2.3438 2.3438v7.0625c0 10.84-8.8164 19.656-19.656 19.656s-19.656-8.8164-19.656-19.656v-7.0625c0-1.293-1.0508-2.3438-2.3438-2.3438s-2.3438 1.0508-2.3438 2.3438v7.0625c0 13.426 10.918 24.344 24.344 24.344z"/>
 </g>
</svg>