<svg xmlns="http://www.w3.org/2000/svg" width="20" height="20" fill="#F9BC00" version="1.1" viewBox="-5.0 -10.0 110.0 135.0">
 <path d="m47.922 11.531c0.35547-0.83203 1.1719-1.375 2.0781-1.375s1.7227 0.54297 2.0781 1.375l10.211 24.09c0.22656 0.53516 0.72656 0.89844 1.3047 0.94922l26.066 2.2656c0.90234 0.078124 1.668 0.6875 1.9492 1.5508s0.015625 1.8047-0.66797 2.3984l-19.754 17.16c-0.4375 0.375-0.62891 0.96875-0.5 1.5312l5.8984 25.492c0.20312 0.88281-0.13672 1.8008-0.87109 2.332-0.73047 0.53125-1.7109 0.57422-2.4883 0.10938l-22.422-13.488c-0.49609-0.29688-1.1133-0.29688-1.6094 0l-22.422 13.488c-0.77734 0.46484-1.7578 0.42188-2.4883-0.10938-0.73438-0.53125-1.0742-1.4492-0.87109-2.332l5.8984-25.492c0.12891-0.5625-0.0625-1.1562-0.5-1.5312l-19.754-17.16c-0.68359-0.59375-0.94922-1.5352-0.66797-2.3984s1.0469-1.4727 1.9492-1.5508l26.066-2.2656c0.57812-0.050781 1.0781-0.41406 1.3047-0.94922l10.211-24.09z" fill-rule="evenodd"/>
</svg>