<svg xmlns="http://www.w3.org/2000/svg" width="13" height="13" fill="#007435" xmlns:xlink="http://www.w3.org/1999/xlink" version="1.1"
    x="0px" y="0px" viewBox="0 0 100 125" style="enable-background:new 0 0 100 100;"
    xml:space="preserve"><path d="M50,13.07C29.6,13.07,13.07,29.6,13.07,50c0,20.4,16.53,36.93,36.93,36.93S86.93,70.4,86.93,50  C86.93,29.6,70.4,13.07,50,13.07z M73.62,39.64l-26.9,25.64c-0.66,0.63-1.51,0.94-2.35,0.94c-0.83,0-1.66-0.3-2.31-0.9L26.43,50.95  c-1.39-1.27-1.48-3.43-0.2-4.82c1.27-1.38,3.43-1.48,4.82-0.2l13.29,12.22l24.59-23.44c1.36-1.3,3.52-1.25,4.82,0.11  C75.03,36.19,74.98,38.35,73.62,39.64z"/></svg>