<svg xmlns="http://www.w3.org/2000/svg" width="30" height="30" version="1.1" viewBox="-5.0 -10.0 110.0 135.0">
 <path d="m24.477 12.5h-1.9766c-2.6484 0-5.1992 1.0508-7.0742 2.9258s-2.9258 4.4258-2.9258 7.0742v67.5c0 5.5234 4.4766 10 10 10h55c5.5234 0 10-4.4766 10-10v-67.5c0-2.6484-1.0508-5.1992-2.9258-7.0742s-4.4258-2.9258-7.0742-2.9258h-1.9766c-0.85156-2.9492-3.5508-5-6.6484-5h-6.4766c-0.27344-1.8516-1.125-3.6016-2.4766-4.9492-1.625-1.6484-3.8516-2.5508-6.1758-2.5508h-7.5234c-2.3242 0-4.5508 0.92578-6.1758 2.5508-1.3516 1.3516-2.1992 3.0742-2.4766 4.9492h-6.4766c-3.1016 0-5.8008 2.0508-6.6484 5zm52.023 5c0.14844 1.7734-0.39844 3.5742-1.5508 4.9766-1.3242 1.6016-3.2734 2.5234-5.3516 2.5234h-39.223c-2.0742 0-4.0234-0.92578-5.3516-2.5234-1.1484-1.3984-1.6992-3.1758-1.5508-4.9766h-1c-1.3242 0-2.6016 0.52344-3.5234 1.4766-0.94922 0.92578-1.4766 2.1992-1.4766 3.5234v67.5c0 2.75 2.25 5 5 5h55c2.75 0 5-2.25 5-5l0.003906-67.5c0-1.3242-0.52344-2.6016-1.4766-3.5234-0.92578-0.94922-2.1992-1.4766-3.5234-1.4766h-1zm-36.5 70h20c1.375 0 2.5-1.125 2.5-2.5s-1.125-2.5-2.5-2.5h-20c-1.375 0-2.5 1.125-2.5 2.5s1.125 2.5 2.5 2.5zm17.5-52.5h-20c-4.1484 0-7.5 3.3516-7.5 7.5v25c0 4.1484 3.3516 7.5 7.5 7.5h25c4.1484 0 7.5-3.3516 7.5-7.5v-17.5c0-1.375-1.125-2.5-2.5-2.5s-2.5 1.125-2.5 2.5v17.5c0 1.375-1.125 2.5-2.5 2.5h-25c-1.375 0-2.5-1.125-2.5-2.5v-25c0-1.375 1.125-2.5 2.5-2.5h20c1.375 0 2.5-1.125 2.5-2.5s-1.125-2.5-2.5-2.5zm-17 14 7.5 10c0.44922 0.60156 1.1484 0.97656 1.8984 1s1.4766-0.27344 1.9766-0.82422l22.5-25c0.92578-1.0234 0.85156-2.6016-0.19922-3.5234-1.0234-0.92578-2.6016-0.85156-3.5234 0.19922l-20.477 22.75-5.6758-7.5742c-0.82422-1.1016-2.3984-1.3242-3.5-0.5-1.1016 0.82422-1.3242 2.3984-0.5 3.5zm2-40.273c0-1 0.39844-1.9492 1.1016-2.6484 0.69922-0.69922 1.6484-1.1016 2.6484-1.1016h7.5234c1 0 1.9492 0.39844 2.6484 1.1016 0.69922 0.69922 1.1016 1.6484 1.1016 2.6484v1.25c0 2.3516 2.5 2.5234 2.5 2.5234h8.875c0.89844 0 1.6992 0.64844 1.875 1.5234l0.72656 3.6758c0.10156 0.55078-0.023438 1.1484-0.39844 1.5742-0.35156 0.44922-0.89844 0.69922-1.4766 0.69922l-39.25 0.003906c-0.57422 0-1.125-0.25-1.4766-0.69922-0.375-0.44922-0.5-1.0234-0.39844-1.5742l0.72656-3.6758c0.17578-0.89844 0.97656-1.5234 1.875-1.5234h8.875s2.5-0.17578 2.5-2.5234v-1.25z" fill-rule="evenodd"/>
</svg>